<svg width="319" height="319" viewBox="0 0 319 319" fill="none" xmlns="http://www.w3.org/2000/svg">
<path d="M39.875 93.0417V66.4583C39.875 59.408 42.6757 52.6464 47.6611 47.6611C52.6464 42.6757 59.408 39.875 66.4583 39.875H93.0417M225.958 39.875H252.542C259.592 39.875 266.354 42.6757 271.339 47.6611C276.324 52.6464 279.125 59.408 279.125 66.4583V93.0417M279.125 225.958V252.542C279.125 259.592 276.324 266.354 271.339 271.339C266.354 276.324 259.592 279.125 252.542 279.125H225.958M93.0417 279.125H66.4583C59.408 279.125 52.6464 276.324 47.6611 271.339C42.6757 266.354 39.875 259.592 39.875 252.542V225.958" stroke="white" stroke-width="4" stroke-linecap="round" stroke-linejoin="round"/>
</svg>
