<svg width="300" height="300" viewBox="0 0 300 300" fill="none" xmlns="http://www.w3.org/2000/svg">
<path d="M66.6813 74.6932C56.8218 78.462 49.6488 74.811 40.0205 79.1366C35.2504 81.2797 32.668 82.84 28.5945 86.1192C19.3769 93.5393 16.3474 100.412 11.6126 111.154L11.4554 111.51C3.30544 129.997 2.57488 142.974 5.74235 162.928C9.0459 183.738 17.172 194.099 28.5945 211.806C37.577 225.73 43.1914 233.455 55.2553 244.815C65.1817 254.161 71.5496 258.656 83.1856 265.762C98.7165 275.247 109.766 279.187 128.255 282.267C153.294 286.438 179.672 280.997 193.003 276.554C206.333 272.11 233.629 253.067 256.481 228.945C273.317 211.173 288.476 193.202 294.568 168.006C299.17 148.97 292.029 119.763 292.029 119.763C292.029 119.763 284.088 95.6663 272.35 86.1192C257.874 74.3446 245.744 76.8033 229.82 67.0757C211.87 56.1101 206.792 44.9053 188.559 36.6063C166.167 26.4136 149.56 25.3794 125.716 32.1628C116.728 34.7199 111.715 36.5977 103.499 41.0498C86.3742 50.329 84.8744 67.7388 66.6813 74.6932Z" fill="#FFE0BC"/>
<path d="M30.026 128.148C32.6989 119.461 36.3738 113.548 37.6434 109.104C38.913 104.661 35.903 103.325 31.2956 102.122C26.2173 100.795 19.2172 117.01 16.6956 128.148C14.4513 138.06 16.0609 149.73 17.9652 152.269C19.8694 154.808 26.823 156.468 28.7565 151.634C30.026 148.461 27.4869 136.4 30.026 128.148Z" fill="white"/>
<path d="M19.8695 166.234C20.4991 163.982 21.1585 162.541 23.0434 161.156C25.2773 159.516 27.4869 159.572 28.7565 160.521C30.7814 162.035 30.4899 163.838 31.2956 166.234C32.1789 168.861 34.267 169.845 33.8347 172.582C33.5021 174.689 33.0797 175.858 31.2956 177.026C28.5993 178.791 25.8274 178.649 23.0434 177.026C19.2487 174.813 18.6871 170.465 19.8695 166.234Z" fill="white"/>
<path d="M178.184 160.363C176.279 159.728 129.305 159.728 126.766 160.363C124.227 160.998 118.505 163.399 116.61 167.98C115.188 171.416 115.689 173.899 116.61 177.502C117.973 182.835 120.966 185.04 124.862 188.928C130.61 194.664 134.729 197.87 142.636 199.719C148.429 201.074 152.081 201.088 157.871 199.719C164.783 198.085 168.505 195.633 173.74 190.832C178.455 186.508 181.832 183.737 183.262 177.502C184.093 173.877 184.36 171.533 183.262 167.98C182.205 164.565 180.088 160.998 178.184 160.363Z" fill="#541F4A"/>
<path d="M149.999 178.933C159.626 179.127 171.81 189.047 173.83 190.748C173.8 190.776 173.77 190.805 173.74 190.832C168.505 195.633 164.783 198.085 157.87 199.719C152.081 201.088 148.429 201.074 142.636 199.719C135.212 197.983 131.127 195.05 125.898 189.951C129.671 186.988 140.994 178.751 149.999 178.933Z" fill="#EC3F30"/>
<path d="M268.069 213.208C263.365 214.795 259.343 215.554 255.373 212.573C253.391 211.085 252.386 209.834 251.565 207.495C250.661 204.922 251.123 203.203 251.565 200.513C252.373 195.59 255.281 193.659 257.278 189.087C260.728 181.184 262.392 176.557 264.26 168.139C266.259 159.132 267.163 153.87 266.799 144.652C266.533 137.891 265.854 134.089 264.26 127.513C262.783 121.418 259.827 118.516 259.182 112.278C258.876 109.319 257.909 107.349 259.182 104.661C260.713 101.43 263.384 100.639 266.799 99.5824C270.352 98.4837 272.742 98.5756 276.321 99.5824C281.094 100.925 283.365 103.34 286.478 107.2C290.612 112.327 291.295 116.663 292.825 123.069C294.906 131.78 296.634 137.601 296.634 146.556C296.634 153.539 297.045 160.669 294.73 168.774C292.191 177.66 289.829 182.543 285.208 191.626C281.56 198.795 277.591 204.321 273.782 208.765L273.663 208.904C271.853 211.016 270.75 212.304 268.069 213.208Z" fill="#854DA3"/>
<ellipse cx="95.4085" cy="129.417" rx="34.2782" ry="36.8173" fill="white"/>
<ellipse cx="95.4085" cy="129.417" rx="34.2782" ry="36.8173" fill="white"/>
<ellipse cx="95.4085" cy="132.591" rx="25.3912" ry="27.2956" fill="#662E76"/>
<ellipse cx="202.687" cy="130.687" rx="36.1825" ry="36.8173" fill="white"/>
<ellipse cx="205.226" cy="131.956" rx="24.7565" ry="25.3912" fill="#642974"/>
<path d="M71.8018 156.112C77.7696 162.202 85.7772 166.006 94.6104 166.223C97.5144 170.012 99.2169 174.609 99.2169 179.565C99.2169 192.536 87.5651 203.052 73.1915 203.052C58.8177 203.052 47.1651 192.536 47.1651 179.565C47.1652 167.014 58.074 156.763 71.8018 156.112Z" fill="#F4585B"/>
<path d="M227.607 157.377C242.366 157.988 254.103 167.972 254.103 180.2C254.103 192.82 241.599 203.052 226.174 203.052C210.748 203.052 198.243 192.82 198.243 180.2C198.243 175.5 199.978 171.132 202.951 167.5C212.505 167.431 221.178 163.595 227.607 157.377Z" fill="#F4585B"/>
<path d="M178.184 160.363C176.279 159.728 129.305 159.728 126.766 160.363C124.227 160.998 118.505 163.399 116.61 167.98C115.188 171.416 115.689 173.899 116.61 177.502C117.973 182.835 120.966 185.04 124.862 188.928C130.61 194.664 134.729 197.87 142.636 199.719C148.429 201.074 152.081 201.088 157.871 199.719C164.783 198.085 168.505 195.633 173.74 190.832C178.455 186.508 181.832 183.737 183.262 177.502C184.093 173.877 184.36 171.533 183.262 167.98C182.205 164.565 180.088 160.998 178.184 160.363Z" fill="#541F4A"/>
<path d="M149.999 178.933C159.625 179.127 171.81 189.047 173.83 190.748C173.8 190.776 173.77 190.804 173.74 190.832C168.505 195.633 164.783 198.084 157.87 199.719C152.081 201.088 148.429 201.073 142.636 199.719C135.212 197.983 131.128 195.05 125.899 189.95C129.673 186.987 140.994 178.751 149.999 178.933Z" fill="#EC3F30"/>
<path d="M103.026 90.6959H90.3302C85.2521 90.6959 84.6173 84.3481 85.252 83.0783C85.8867 81.8085 86.5402 79.2696 89.6954 79.2696C94.7737 79.2695 98.5824 78.6345 101.122 79.2695C104.924 80.2206 107.593 82.3347 107.469 86.2523C107.403 88.3693 105.144 90.6959 103.026 90.6959Z" fill="#854DA3"/>
<path d="M185.547 86.252C183.265 87.3934 181.157 85.896 179.834 83.7129C177.804 80.3602 180.613 78.5635 183.008 75.4608C185.658 72.0281 186.518 71.7731 190.626 70.3825C194.645 69.0219 198.243 67.8433 201.417 67.8434C204.433 67.8434 206.063 68.4761 208.399 70.3825C211.012 72.5139 210.588 74.1912 210.304 76.0955C209.736 79.9043 199.141 76.3573 192.53 79.9042C188.502 82.0651 188.087 84.9825 185.547 86.252Z" fill="#854DA3"/>
<path d="M175.391 256.373C186.201 252.692 194.434 244.312 201.417 243.043C206.816 242.061 209.807 243.407 213.478 247.486C218.453 253.014 217.22 261.69 211.573 266.53C207.13 270.338 199.62 275.224 188.087 278.591C172.672 283.091 161.609 283.888 145.556 284.304C126.314 284.801 116.696 282.844 99.2171 274.782C84.3449 267.922 76.8683 263.706 64.3042 253.199C54.5888 245.075 50.0564 240.825 42.0868 230.982C36.7623 224.406 21.1885 205.615 28.7565 209.4C37.6434 213.843 43.3564 215.747 52.8781 215.747C60.4623 215.747 65.6577 215.28 71.9215 219.556C78.9812 224.375 77.2974 231.986 82.7128 238.599C87.3822 244.302 90.532 247.227 96.678 251.295C109.514 259.792 119.411 260.347 134.765 261.451C150.713 262.599 160.256 261.528 175.391 256.373Z" fill="#854DA3"/>
<path d="M74.4638 241.949C70.0374 240.587 67.5831 237.888 63.0377 238.775C60.3175 239.306 58.9223 240.306 56.6899 241.949C54.7133 243.403 53.4142 244.234 52.2465 246.392C51.0455 248.612 51.019 250.207 50.9771 252.728L50.9769 252.74C50.9129 256.588 51.8448 258.795 53.516 262.262C55.4328 266.237 57.9048 268.774 61.1334 271.783C64.8052 275.206 66.7568 276.61 71.2899 278.766C75.5376 280.786 78.0404 281.427 82.716 281.94C87.4238 282.456 90.767 282.866 95.4116 281.94C101.024 280.821 103.991 279.418 108.742 276.227C113.117 273.288 115.616 271.262 118.264 266.705C120.276 263.242 120.842 260.509 121.438 256.549L121.45 256.469C122.111 252.07 122.592 248.869 120.168 245.123C118.443 242.457 116.728 241.319 113.82 240.044C111.058 238.833 109.216 238.652 106.203 238.775C101.419 238.969 99.3945 241.954 94.7768 243.218C90.6494 244.348 88.2496 245.484 83.9855 245.123C80.08 244.791 78.2101 243.101 74.4638 241.949Z" fill="#F76087"/>
<ellipse cx="111.532" cy="250.331" rx="4.44347" ry="6.34781" transform="rotate(-34 111.532 250.331)" fill="#D9D9D9"/>
<ellipse cx="61.7682" cy="250.271" rx="4.0586" ry="5.70749" transform="rotate(59 61.7682 250.271)" fill="#D9D9D9"/>
<ellipse cx="87.7942" cy="263.531" rx="11.4261" ry="10.7913" fill="white"/>
<path d="M80.177 261.627C85.6971 260.2 89.2701 260.148 94.7766 261.627C96.8221 262.176 98.0808 262.374 99.8547 263.531C102.062 264.971 103.136 266.244 104.298 268.609C105.094 270.229 105.256 271.275 105.568 273.052C106.081 275.982 106.09 277.741 105.568 280.67C105.058 283.526 104.69 285.274 103.029 287.653C101.21 290.255 99.2199 291.885 96.6809 292.731C94.1447 293.576 88.4425 294 88.4289 294.001C88.4289 294.001 78.273 292.731 77.0031 292.096C75.7336 291.462 73.0547 289.432 71.2893 286.383C69.5592 283.395 68.4003 281.572 68.1154 278.131C67.8667 275.125 68.3495 273.346 69.385 270.513C70.2613 268.116 70.7267 266.576 72.5598 264.8C74.8743 262.558 77.0569 262.433 80.177 261.627ZM94.1418 264.166C89.0976 262.139 80.234 264.153 80.177 264.166C80.177 264.166 75.6216 265.706 73.8293 267.974C72.7984 269.279 72.4309 270.199 71.924 271.783C71.3149 273.686 71.0547 274.876 71.2893 276.861C71.6539 279.946 72.9263 281.623 75.0988 283.843C77.1209 285.91 78.6982 286.755 81.4465 287.652C84.2842 288.578 86.0981 288.628 89.0637 288.288C92.1789 287.93 94.0745 287.491 96.6809 285.748C99.162 284.088 100.612 282.791 101.759 280.035C102.811 277.507 102.981 275.727 102.394 273.052C101.774 270.229 100.745 268.626 98.5852 266.705C97.092 265.376 95.9963 264.911 94.1418 264.166Z" fill="#D9D9D9"/>
<rect x="80.1768" y="259.088" width="13.9652" height="7.61737" rx="2.53912" fill="#854DA3"/>
<path d="M142.382 37.3738C142.382 37.3738 144.217 27.7988 142.382 22.1391C140.053 14.9514 129.687 7.53912 129.687 7.53912M153.808 37.3738V7.53912M165.869 37.3738L170.947 22.1391M170.947 22.1391L162.061 5M170.947 22.1391L183.008 5" stroke="black" stroke-width="6.34781" stroke-linecap="round"/>
<path d="M212.384 274.248L218.8 218.337C219.3 213.979 223.964 211.43 227.902 213.362L276.481 237.193C281.029 239.424 281.26 245.822 276.884 248.375L221.889 280.455C217.373 283.089 211.788 279.442 212.384 274.248Z" fill="#FFCE01"/>
<circle cx="238.869" cy="236.06" r="2.53912" fill="black"/>
<circle cx="233.791" cy="243.678" r="2.53912" fill="black"/>
<circle cx="241.408" cy="244.947" r="2.53912" fill="black"/>
</svg>
