<svg width="300" height="300" viewBox="0 0 300 300" fill="none" xmlns="http://www.w3.org/2000/svg">
<path d="M0 150C0 67.1573 67.1573 0 150 0C232.843 0 300 67.1573 300 150C300 232.843 232.843 300 150 300C67.1573 300 0 232.843 0 150Z" fill="#B2D5FF"/>
<path d="M84.3724 90.8954C76.6063 93.864 70.9563 90.9882 63.3724 94.3954C59.6151 96.0834 57.581 97.3125 54.3724 99.8954C47.112 105.74 44.7257 111.154 40.9962 119.614L40.8724 119.895C34.4529 134.457 33.8775 144.679 36.3724 160.395C38.9745 176.787 45.3752 184.948 54.3724 198.895C61.4477 209.863 65.87 215.948 75.3724 224.895C83.1912 232.258 88.207 235.798 97.3724 241.395C109.606 248.866 118.309 251.969 132.872 254.395C152.595 257.681 173.372 253.396 183.872 249.895C194.372 246.395 215.872 231.395 233.872 212.395C247.134 198.397 259.074 184.242 263.872 164.395C267.497 149.402 261.872 126.395 261.872 126.395C261.872 126.395 255.618 107.415 246.372 99.8954C234.97 90.6209 225.415 92.5575 212.872 84.8954C198.733 76.2581 194.733 67.4324 180.372 60.8954C162.734 52.8669 149.653 52.0523 130.872 57.3954C123.793 59.4096 119.844 60.8886 113.372 64.3954C99.884 71.7045 98.7026 85.4177 84.3724 90.8954Z" fill="#FFE0BC"/>
<path d="M55.5 133C57.6053 126.158 60.5 121.5 61.5 118C62.5 114.5 60.1292 113.448 56.5 112.5C52.5 111.455 46.9862 124.227 45 133C43.2322 140.808 44.5001 150 46 152C47.4999 154 52.9771 155.307 54.5 151.5C55.5 149 53.5 139.5 55.5 133Z" fill="white"/>
<path d="M47.5 163C47.9959 161.226 48.5153 160.09 50 159C51.7596 157.708 53.5 157.753 54.5 158.5C56.095 159.692 55.8654 161.113 56.5 163C57.1958 165.069 58.8405 165.844 58.5 168C58.238 169.659 57.9053 170.58 56.5 171.5C54.3762 172.89 52.1928 172.779 50 171.5C47.011 169.757 46.5686 166.332 47.5 163Z" fill="white"/>
<path d="M172.2 158.375C170.7 157.875 133.7 157.875 131.7 158.375C129.7 158.875 125.193 160.767 123.7 164.375C122.58 167.081 122.974 169.037 123.7 171.875C124.773 176.076 127.131 177.813 130.2 180.875C134.727 185.393 137.971 187.919 144.2 189.375C148.763 190.442 151.639 190.453 156.2 189.375C161.644 188.088 164.576 186.157 168.7 182.375C172.413 178.969 175.073 176.787 176.2 171.875C176.854 169.02 177.065 167.173 176.2 164.375C175.368 161.685 173.7 158.875 172.2 158.375Z" fill="#541F4A"/>
<path d="M150 173.002C157.582 173.155 167.178 180.968 168.771 182.309C168.747 182.331 168.723 182.353 168.699 182.375C164.576 186.157 161.644 188.088 156.199 189.375C151.639 190.453 148.762 190.442 144.199 189.375C138.352 188.008 135.134 185.698 131.016 181.681C133.988 179.348 142.906 172.859 150 173.002Z" fill="#EC3F30"/>
<path d="M243 200C239.295 201.25 236.127 201.848 233 199.5C231.438 198.328 230.647 197.342 230 195.5C229.289 193.473 229.652 192.12 230 190C230.637 186.122 232.928 184.601 234.5 181C237.218 174.775 238.529 171.131 240 164.5C241.574 157.406 242.286 153.261 242 146C241.79 140.675 241.255 137.68 240 132.5C238.837 127.699 236.508 125.414 236 120.5C235.759 118.169 234.997 116.618 236 114.5C237.206 111.955 239.31 111.332 242 110.5C244.798 109.635 246.68 109.707 249.5 110.5C253.259 111.557 255.049 113.46 257.5 116.5C260.757 120.539 261.295 123.954 262.5 129C264.139 135.861 265.5 140.446 265.5 147.5C265.5 153 265.824 158.617 264 165C262 172 260.14 175.846 256.5 183C253.627 188.647 250.5 193 247.5 196.5L247.406 196.61C245.981 198.273 245.112 199.288 243 200Z" fill="#854DA3"/>
<ellipse cx="107" cy="134" rx="27" ry="29" fill="white"/>
<ellipse cx="107" cy="134" rx="27" ry="29" fill="white"/>
<ellipse cx="107" cy="136.5" rx="20" ry="21.5" fill="#662E76"/>
<ellipse cx="191.5" cy="135" rx="28.5" ry="29" fill="white"/>
<ellipse cx="193.5" cy="136" rx="19.5" ry="20" fill="#642974"/>
<path d="M88.4062 155.027C93.1067 159.824 99.4138 162.819 106.371 162.99C108.659 165.975 110 169.596 110 173.5C110 183.717 100.822 192 89.5 192C78.1782 192 69 183.717 69 173.5C69 163.614 77.5929 155.54 88.4062 155.027Z" fill="#F4585B"/>
<path d="M211.13 156.023C222.755 156.505 232 164.369 232 174C232 183.941 222.15 192 210 192C197.85 192 188 183.941 188 174C188 170.298 189.366 166.858 191.707 163.997C199.233 163.943 206.065 160.921 211.13 156.023Z" fill="#F4585B"/>
<path d="M172.2 158.375C170.7 157.875 133.7 157.875 131.7 158.375C129.7 158.875 125.193 160.767 123.7 164.375C122.58 167.081 122.974 169.037 123.7 171.875C124.773 176.076 127.131 177.813 130.2 180.875C134.727 185.393 137.971 187.919 144.2 189.375C148.763 190.442 151.639 190.453 156.2 189.375C161.644 188.088 164.576 186.157 168.7 182.375C172.413 178.969 175.073 176.787 176.2 171.875C176.854 169.02 177.065 167.173 176.2 164.375C175.368 161.685 173.7 158.875 172.2 158.375Z" fill="#541F4A"/>
<path d="M150 173.003C157.582 173.156 167.179 180.969 168.771 182.309C168.747 182.331 168.723 182.353 168.699 182.375C164.576 186.156 161.644 188.087 156.199 189.375C151.639 190.453 148.762 190.442 144.199 189.375C138.352 188.007 135.134 185.697 131.016 181.68C133.988 179.347 142.906 172.859 150 173.003Z" fill="#EC3F30"/>
<path d="M113 103.5H103C99.0001 103.5 98.5001 98.5003 99 97.5001C99.4999 96.5 100.015 94.5002 102.5 94.5002C106.5 94.5001 109.5 93.9999 111.5 94.5001C114.495 95.2492 116.597 96.9144 116.5 100C116.447 101.668 114.668 103.5 113 103.5Z" fill="#854DA3"/>
<path d="M178 100C176.202 100.899 174.541 99.7196 173.5 98C171.901 95.3592 174.113 93.944 176 91.5C178.087 88.7962 178.765 88.5953 182 87.5C185.166 86.4283 188 85.5 190.5 85.5C192.875 85.5 194.159 85.9984 196 87.5C198.058 89.1789 197.724 90.5 197.5 92C197.053 95 188.708 92.2062 183.5 95C180.327 96.7021 180 99 178 100Z" fill="#854DA3"/>
<path d="M170 234C178.515 231.1 185 224.5 190.5 223.5C194.753 222.727 197.109 223.787 200 227C203.919 231.354 202.948 238.188 198.5 242C195 245 189.084 248.848 180 251.5C167.858 255.045 159.144 255.673 146.5 256C131.344 256.392 123.767 254.85 110 248.5C98.2855 243.096 92.3964 239.776 82.5 231.5C74.8474 225.101 71.2774 221.753 64.9999 214C60.806 208.82 48.5389 194.019 54.5 197C61.5 200.5 66 202 73.5 202C79.4738 202 83.5661 201.632 88.4999 205C94.0607 208.796 92.7344 214.79 96.9999 220C100.678 224.492 103.159 226.795 108 230C118.111 236.693 125.906 237.13 138 238C150.562 238.904 158.078 238.06 170 234Z" fill="#854DA3"/>
<path d="M90.5024 222.638C87.0159 221.565 85.0827 219.439 81.5024 220.138C79.3597 220.556 78.2608 221.344 76.5024 222.638C74.9455 223.784 73.9222 224.438 73.0024 226.138C72.0565 227.887 72.0356 229.143 72.0026 231.128L72.0024 231.138C71.952 234.169 72.686 235.908 74.0024 238.638C75.5122 241.77 77.4594 243.768 80.0024 246.138C82.8946 248.834 84.4319 249.94 88.0024 251.638C91.3482 253.229 93.3197 253.734 97.0024 254.138C100.711 254.545 103.344 254.868 107.002 254.138C111.423 253.256 113.76 252.152 117.502 249.638C120.948 247.323 122.917 245.727 125.002 242.138C126.587 239.411 127.033 237.258 127.502 234.138L127.512 234.075C128.033 230.61 128.412 228.089 126.502 225.138C125.144 223.039 123.792 222.142 121.502 221.138C119.327 220.184 117.876 220.042 115.502 220.138C111.734 220.291 110.14 222.642 106.502 223.638C103.251 224.528 101.361 225.423 98.0024 225.138C94.9261 224.877 93.4533 223.546 90.5024 222.638Z" fill="#F76087"/>
<ellipse cx="119.7" cy="229.24" rx="3.5" ry="5" transform="rotate(-34 119.7 229.24)" fill="#D9D9D9"/>
<ellipse cx="80.5025" cy="229.194" rx="3.19685" ry="4.49564" transform="rotate(59 80.5025 229.194)" fill="#D9D9D9"/>
<ellipse cx="101.002" cy="239.638" rx="9" ry="8.5" fill="white"/>
<path d="M95.0027 238.138C99.3507 237.014 102.165 236.973 106.503 238.138C108.114 238.57 109.106 238.726 110.503 239.638C112.241 240.772 113.087 241.775 114.003 243.638C114.63 244.914 114.757 245.738 115.003 247.138C115.407 249.446 115.414 250.831 115.003 253.138C114.601 255.388 114.312 256.764 113.003 258.638C111.571 260.688 110.003 261.971 108.003 262.638C106.013 263.301 101.549 263.634 101.503 263.638C101.503 263.638 93.5032 262.638 92.5027 262.138C91.5028 261.638 89.3933 260.039 88.0027 257.638C86.64 255.284 85.7271 253.848 85.5027 251.138C85.3067 248.77 85.6871 247.369 86.5027 245.138C87.193 243.25 87.5589 242.037 89.0027 240.638C90.8258 238.872 92.5451 238.773 95.0027 238.138ZM106.003 240.138C102.033 238.543 95.0611 240.125 95.0027 240.138C95.0027 240.138 91.4144 241.351 90.0027 243.138C89.1907 244.166 88.9019 244.89 88.5027 246.138C88.0229 247.637 87.8179 248.575 88.0027 250.138C88.29 252.567 89.2915 253.889 91.0027 255.638C92.5953 257.265 93.8381 257.931 96.0027 258.638C98.2377 259.367 99.6669 259.406 102.003 259.138C104.456 258.856 105.95 258.511 108.003 257.138C109.957 255.831 111.099 254.808 112.003 252.638C112.832 250.647 112.965 249.244 112.503 247.138C112.015 244.914 111.204 243.651 109.503 242.138C108.327 241.092 107.463 240.725 106.003 240.138Z" fill="#D9D9D9"/>
<rect x="95.0024" y="236.138" width="11" height="6" rx="2" fill="#854DA3"/>
<path d="M144 61.5C144 61.5 145.445 53.958 144 49.5C142.165 43.8384 134 38 134 38M153 61.5V38M162.5 61.5L166.5 49.5M166.5 49.5L159.5 36M166.5 49.5L176 36" stroke="black" stroke-width="5" stroke-linecap="round"/>
<path d="M199.138 248.08L204.192 204.04C204.586 200.607 208.26 198.599 211.362 200.121L249.626 218.892C253.208 220.649 253.39 225.689 249.943 227.7L206.625 252.969C203.069 255.043 198.669 252.17 199.138 248.08Z" fill="#FFCE01"/>
<circle cx="220" cy="218" r="2" fill="black"/>
<circle cx="216" cy="224" r="2" fill="black"/>
<circle cx="222" cy="225" r="2" fill="black"/>
</svg>
