<svg width="500" height="500" viewBox="0 0 500 500" fill="none" xmlns="http://www.w3.org/2000/svg">
<path d="M141.334 152.433C128.541 157.323 119.233 152.586 106.74 158.198C100.55 160.979 97.199 163.004 91.9133 167.259C79.9528 176.887 76.0218 185.805 69.878 199.743L69.6739 200.206C59.0988 224.194 58.1508 241.033 62.2608 266.924C66.5475 293.928 77.0917 307.372 91.9133 330.347C103.569 348.415 110.854 358.439 126.508 373.179C139.388 385.307 147.651 391.139 162.75 400.36C182.902 412.668 197.24 417.779 221.231 421.776C253.721 427.188 287.949 420.129 305.246 414.363C322.544 408.597 357.962 383.887 387.614 352.587C409.461 329.526 429.131 306.208 437.035 273.514C443.006 248.813 433.74 210.914 433.74 210.914C433.74 210.914 423.436 179.647 408.206 167.259C389.423 151.98 373.682 155.171 353.02 142.548C329.728 128.32 323.138 113.781 299.481 103.012C270.425 89.786 248.875 88.4441 217.936 97.2461C206.273 100.564 199.768 103.001 189.107 108.778C166.887 120.818 164.941 143.409 141.334 152.433Z" fill="#FD9FB5"/>
<path d="M93.7709 221.794C97.2392 210.522 102.008 202.849 103.655 197.084C105.302 191.318 101.397 189.584 95.4183 188.023C88.8288 186.302 79.7456 207.342 76.4737 221.794C73.5615 234.657 75.6501 249.799 78.121 253.094C80.5919 256.388 89.6148 258.542 92.1236 252.27C93.7709 248.152 90.4762 232.502 93.7709 221.794Z" fill="white"/>
<path d="M80.5921 271.215C81.4089 268.292 82.2646 266.422 84.7104 264.625C87.6091 262.497 90.4762 262.57 92.1236 263.802C94.751 265.766 94.3728 268.105 95.4183 271.215C96.5645 274.624 99.2739 275.899 98.713 279.452C98.2814 282.185 97.7334 283.702 95.4183 285.217C91.9197 287.508 88.3228 287.324 84.7104 285.217C79.7865 282.346 79.0577 276.704 80.5921 271.215Z" fill="white"/>
<path d="M286.017 263.596C283.546 262.772 222.594 262.772 219.299 263.596C216.004 264.419 208.58 267.535 206.12 273.48C204.275 277.938 204.926 281.16 206.12 285.835C207.889 292.755 211.773 295.616 216.828 300.661C224.286 308.104 229.631 312.265 239.891 314.664C247.408 316.421 252.147 316.44 259.659 314.664C268.629 312.543 273.459 309.362 280.251 303.132C286.369 297.521 290.751 293.926 292.607 285.835C293.685 281.132 294.032 278.089 292.607 273.48C291.236 269.048 288.488 264.42 286.017 263.596Z" fill="#541F4A"/>
<path d="M249.447 287.692C261.938 287.945 277.748 300.818 280.369 303.024C280.33 303.06 280.291 303.097 280.251 303.133C273.459 309.362 268.629 312.543 259.66 314.664C252.147 316.44 247.408 316.421 239.891 314.664C230.258 312.411 224.958 308.605 218.173 301.988C223.071 298.144 237.761 287.456 249.447 287.692Z" fill="#EC3F30"/>
<path d="M402.651 332.167C396.547 334.226 391.328 335.211 386.177 331.343C383.605 329.412 382.301 327.789 381.235 324.754C380.063 321.415 380.662 319.185 381.235 315.693C382.284 309.305 386.058 306.8 388.648 300.867C393.125 290.613 395.285 284.609 397.709 273.686C400.302 261.999 401.475 255.171 401.003 243.21C400.658 234.437 399.776 229.503 397.709 220.97C395.792 213.062 391.957 209.296 391.119 201.202C390.722 197.362 389.467 194.806 391.119 191.318C393.105 187.125 396.571 186.099 401.003 184.728C405.613 183.303 408.714 183.422 413.359 184.728C419.552 186.47 422.499 189.605 426.537 194.613C431.903 201.266 432.789 206.891 434.774 215.204C437.474 226.507 439.716 234.06 439.716 245.681C439.716 254.741 440.25 263.994 437.245 274.509C433.951 286.041 430.886 292.376 424.89 304.162C420.157 313.465 415.006 320.635 410.064 326.401L409.909 326.582C407.561 329.322 406.129 330.994 402.651 332.167Z" fill="#854DA3"/>
<ellipse cx="178.61" cy="223.441" rx="44.4787" ry="47.7734" fill="white"/>
<ellipse cx="178.61" cy="223.441" rx="44.4787" ry="47.7734" fill="white"/>
<ellipse cx="178.61" cy="227.56" rx="32.9472" ry="35.4182" fill="#662E76"/>
<ellipse cx="317.812" cy="225.089" rx="46.9497" ry="47.7734" fill="white"/>
<ellipse cx="321.106" cy="226.736" rx="32.1235" ry="32.9472" fill="#642974"/>
<path d="M147.978 258.079C155.722 265.983 166.114 270.921 177.577 271.201C181.344 276.118 183.552 282.082 183.552 288.512C183.552 305.344 168.432 318.989 149.781 318.989C131.13 318.988 116.01 305.343 116.01 288.512C116.01 272.226 130.165 258.925 147.978 258.079Z" fill="#F4585B"/>
<path d="M350.149 259.722C369.3 260.515 384.529 273.47 384.529 289.336C384.529 305.712 368.304 318.988 348.288 318.988C328.272 318.988 312.046 305.712 312.046 289.336C312.046 283.239 314.296 277.572 318.152 272.859C330.551 272.77 341.806 267.791 350.149 259.722Z" fill="#F4585B"/>
<path d="M286.017 263.596C283.546 262.772 222.594 262.772 219.299 263.596C216.004 264.419 208.58 267.535 206.12 273.48C204.275 277.938 204.926 281.16 206.12 285.835C207.889 292.755 211.773 295.616 216.828 300.661C224.286 308.104 229.631 312.265 239.891 314.664C247.408 316.421 252.147 316.44 259.659 314.664C268.629 312.543 273.459 309.362 280.251 303.132C286.369 297.521 290.751 293.926 292.607 285.835C293.685 281.132 294.032 278.089 292.607 273.48C291.236 269.048 288.488 264.42 286.017 263.596Z" fill="#541F4A"/>
<path d="M249.447 287.692C261.938 287.944 277.747 300.817 280.369 303.024C280.33 303.06 280.291 303.096 280.251 303.132C273.459 309.362 268.629 312.543 259.66 314.663C252.147 316.44 247.408 316.421 239.891 314.663C230.258 312.411 224.958 308.605 218.173 301.989C223.07 298.145 237.761 287.456 249.447 287.692Z" fill="#EC3F30"/>
<path d="M188.494 173.198H172.02C165.431 173.198 164.607 164.961 165.431 163.313C166.255 161.665 167.103 158.371 171.197 158.371C177.786 158.371 182.728 157.547 186.023 158.371C190.957 159.605 194.42 162.348 194.26 167.432C194.173 170.179 191.242 173.198 188.494 173.198Z" fill="#854DA3"/>
<path d="M295.572 167.431C292.61 168.912 289.875 166.969 288.159 164.136C285.525 159.786 289.17 157.455 292.278 153.429C295.716 148.974 296.832 148.643 302.162 146.839C307.377 145.074 312.046 143.544 316.164 143.544C320.078 143.544 322.193 144.365 325.225 146.839C328.615 149.605 328.064 151.781 327.696 154.252C326.959 159.194 313.212 154.592 304.633 159.194C299.406 161.998 298.867 165.784 295.572 167.431Z" fill="#854DA3"/>
<path d="M282.393 388.177C296.42 383.4 307.104 372.527 316.164 370.88C323.17 369.606 327.051 371.353 331.814 376.645C338.27 383.818 336.67 395.076 329.343 401.356C323.577 406.298 313.832 412.637 298.867 417.006C278.866 422.845 264.51 423.88 243.68 424.419C218.712 425.064 206.232 422.525 183.552 412.064C164.254 403.162 154.553 397.692 138.25 384.059C125.643 373.517 119.762 368.001 109.421 355.23C102.512 346.697 82.3035 322.315 92.1235 327.225C103.655 332.991 111.068 335.461 123.423 335.461C133.264 335.461 140.006 334.855 148.134 340.403C157.294 346.657 155.109 356.532 162.136 365.114C168.195 372.514 172.282 376.308 180.257 381.587C196.913 392.613 209.755 393.333 229.678 394.766C250.371 396.255 262.754 394.865 282.393 388.177Z" fill="#854DA3"/>
<path d="M151.432 369.46C145.689 367.693 142.504 364.191 136.606 365.342C133.076 366.03 131.266 367.328 128.369 369.46C125.805 371.347 124.119 372.425 122.604 375.226C121.045 378.106 121.011 380.176 120.957 383.446L120.956 383.463C120.873 388.455 122.082 391.32 124.251 395.818C126.738 400.977 129.946 404.268 134.135 408.173C138.9 412.614 141.432 414.436 147.314 417.233C152.826 419.855 156.073 420.687 162.14 421.352C168.249 422.021 172.587 422.554 178.614 421.352C185.897 419.899 189.747 418.08 195.911 413.939C201.588 410.125 204.831 407.496 208.266 401.583C210.877 397.09 211.612 393.544 212.385 388.405L212.4 388.301C213.259 382.593 213.883 378.44 210.737 373.578C208.5 370.12 206.273 368.643 202.501 366.989C198.917 365.417 196.526 365.183 192.616 365.342C186.409 365.594 183.782 369.467 177.79 371.107C172.434 372.574 169.321 374.048 163.788 373.578C158.72 373.148 156.294 370.956 151.432 369.46Z" fill="#F76087"/>
<ellipse cx="199.531" cy="380.336" rx="5.76576" ry="8.2368" transform="rotate(-34 199.531 380.336)" fill="#D9D9D9"/>
<ellipse cx="134.959" cy="380.26" rx="5.26635" ry="7.40593" transform="rotate(59 134.959 380.26)" fill="#D9D9D9"/>
<ellipse cx="168.73" cy="397.465" rx="14.8262" ry="14.0026" fill="white"/>
<path d="M158.845 394.993C166.008 393.142 170.644 393.075 177.789 394.993C180.443 395.706 182.077 395.963 184.379 397.464C187.243 399.332 188.637 400.984 190.145 404.053C191.177 406.155 191.388 407.513 191.792 409.819C192.458 413.621 192.47 415.903 191.792 419.703C191.131 423.41 190.653 425.677 188.497 428.764C186.138 432.141 183.555 434.254 180.26 435.353C176.981 436.446 169.622 436.995 169.553 437C169.553 437 156.376 435.354 154.727 434.53C153.079 433.707 149.603 431.073 147.313 427.116C145.068 423.239 143.564 420.873 143.194 416.408C142.872 412.509 143.498 410.2 144.842 406.525C145.979 403.414 146.582 401.416 148.96 399.111C151.963 396.202 154.796 396.04 158.845 394.993ZM176.966 398.288C170.4 395.65 158.845 398.288 158.845 398.288C158.791 398.306 152.923 400.301 150.609 403.231C149.271 404.924 148.795 406.117 148.138 408.172C147.347 410.642 147.009 412.186 147.314 414.762C147.787 418.764 149.437 420.942 152.256 423.822C154.88 426.503 156.926 427.601 160.492 428.765C164.174 429.967 166.529 430.03 170.377 429.588C174.419 429.124 176.879 428.555 180.261 426.293C183.48 424.14 185.362 422.456 186.851 418.88C188.216 415.6 188.435 413.29 187.674 409.819C186.87 406.156 185.534 404.077 182.732 401.583C180.794 399.859 179.372 399.255 176.966 398.288Z" fill="#D9D9D9"/>
<rect x="158.845" y="391.699" width="18.121" height="9.88416" rx="3.29472" fill="#854DA3"/>
<path d="M239.562 104.008C239.562 104.008 241.942 91.5833 239.562 84.2393C236.539 74.9127 223.089 65.2947 223.089 65.2947M254.388 104.008V65.2947M270.038 104.008L276.628 84.2393M276.628 84.2393L265.096 62M276.628 84.2393L292.278 62" stroke="black" stroke-width="8.2368" stroke-linecap="round"/>
<path d="M330.395 411.372L338.72 338.822C339.369 333.167 345.421 329.859 350.531 332.366L413.566 363.289C419.468 366.184 419.767 374.486 414.089 377.799L342.728 419.425C336.869 422.843 329.622 418.11 330.395 411.372Z" fill="#FFCE01"/>
<circle cx="364.761" cy="361.819" r="3.29472" fill="black"/>
<circle cx="358.172" cy="371.704" r="3.29472" fill="black"/>
<circle cx="368.056" cy="373.351" r="3.29472" fill="black"/>
</svg>
