<svg width="71" height="51" viewBox="0 0 71 51" fill="none" xmlns="http://www.w3.org/2000/svg">
<path d="M62.5 49C62.5 49 12 49.5 9 49C6 48.4999 5 45.9999 5 45C5 44 7.50006 29.9999 8 28.5C8.49994 27 10.4999 26 12 25.5C13.5001 24.9999 58.0001 24.5 59.5 25.5C60.9999 26.5 61.9999 27 62.5 28.5C63.0001 30 66.9455 43 66 45.5C65.0545 48 62.5 49 62.5 49Z" stroke="black" stroke-width="2"/>
<mask id="path-2-inside-1_66_124" fill="white">
<rect x="13" y="31" width="22" height="12" rx="1"/>
</mask>
<rect x="13" y="31" width="22" height="12" rx="1" stroke="black" stroke-width="4" mask="url(#path-2-inside-1_66_124)"/>
<circle cx="42.5" cy="37.5" r="3.5" stroke="black" stroke-width="2"/>
<circle cx="53.5" cy="37.5" r="3.5" stroke="black" stroke-width="2"/>
<path d="M66.5 9.49997C66.5 9.49997 66.5 18.6249 59.5 19.4999C52.5 20.375 18.5 19.5 13.5 19.5C8.49994 19.4999 2.49993 10.2501 5.49992 9.49997M66.5 9.49997C66.5 9.49997 8.49992 8.74989 5.49992 9.49997M66.5 9.49997C67.0062 10.3397 72.9781 2.2721 66.5 1.99994C60.0219 1.72778 14.8438 1.96858 5.49992 1.99994C-3.84397 2.0313 5.18488 9.52973 5.49992 9.49997" stroke="black" stroke-width="2"/>
<path d="M22.5 20V25.5" stroke="black" stroke-width="2"/>
<path d="M49 20.5V25.5" stroke="black" stroke-width="2"/>
</svg>
