<svg width="228" height="228" viewBox="0 0 228 228" fill="none" xmlns="http://www.w3.org/2000/svg">
<path d="M0 114C0 51.0395 51.0395 0 114 0C176.96 0 228 51.0395 228 114C228 176.96 176.96 228 114 228C51.0395 228 0 176.96 0 114Z" fill="white"/>
<path d="M81.6862 56.4477C77.8032 57.932 74.9782 56.4941 71.1862 58.1977C69.3076 59.0417 68.2905 59.6563 66.6862 60.9477C63.056 63.87 61.8629 66.5768 59.9981 70.8072L59.9362 70.9477C56.7265 78.2284 56.4387 83.3393 57.6862 91.1977C58.9873 99.3937 62.1876 103.474 66.6862 110.448C70.2238 115.932 72.435 118.974 77.1862 123.448C81.0956 127.129 83.6035 128.899 88.1862 131.698C94.3028 135.433 98.6546 136.985 105.936 138.198C115.797 139.84 126.186 137.698 131.436 135.948C136.686 134.198 147.436 126.698 156.436 117.198C163.067 110.199 169.037 103.121 171.436 93.1977C173.249 85.7008 170.436 74.1977 170.436 74.1977C170.436 74.1977 167.309 64.7077 162.686 60.9477C156.985 56.3105 152.208 57.2788 145.936 53.4477C138.867 49.129 136.867 44.7162 129.686 41.4477C120.867 37.4335 114.327 37.0262 104.936 39.6977C101.396 40.7048 99.422 41.4443 96.1862 43.1977C89.442 46.8522 88.8513 53.7088 81.6862 56.4477Z" fill="#FD9FB5"/>
<path d="M67.25 77.5C68.3027 74.0788 69.75 71.75 70.25 70C70.75 68.25 69.5646 67.7239 67.75 67.25C65.75 66.7277 62.9931 73.1136 62 77.5C61.1161 81.4041 61.75 86 62.5 87C63.25 88 65.9885 88.6536 66.75 86.75C67.25 85.5 66.25 80.75 67.25 77.5Z" fill="white"/>
<path d="M63.25 92.5C63.4979 91.6129 63.7576 91.0452 64.5 90.5C65.3798 89.8539 66.25 89.8763 66.75 90.25C67.5475 90.8461 67.4327 91.5563 67.75 92.5C68.0979 93.5346 68.9202 93.9218 68.75 95C68.619 95.8296 68.4527 96.29 67.75 96.75C66.6881 97.4452 65.5964 97.3893 64.5 96.75C63.0055 95.8785 62.7843 94.1662 63.25 92.5Z" fill="white"/>
<path d="M125.6 90.1875C124.85 89.9375 106.35 89.9375 105.35 90.1875C104.35 90.4375 102.096 91.3833 101.35 93.1875C100.79 94.5407 100.987 95.5187 101.35 96.9375C101.887 99.0378 103.065 99.9063 104.6 101.438C106.864 103.697 108.486 104.959 111.6 105.688C113.881 106.221 115.32 106.227 117.6 105.688C120.322 105.044 121.788 104.078 123.85 102.188C125.707 100.485 127.037 99.3933 127.6 96.9375C127.927 95.5101 128.033 94.5866 127.6 93.1875C127.184 91.8423 126.35 90.4375 125.6 90.1875Z" fill="#541F4A"/>
<path d="M114.5 97.5011C118.29 97.5777 123.088 101.483 123.885 102.154C123.873 102.165 123.861 102.177 123.85 102.188C121.788 104.078 120.322 105.044 117.6 105.688C115.319 106.227 113.881 106.221 111.6 105.688C108.677 105.004 107.068 103.849 105.01 101.842C106.496 100.675 110.954 97.4295 114.5 97.5011Z" fill="#EC3F30"/>
<path d="M161 111C159.147 111.625 157.563 111.924 156 110.75C155.219 110.164 154.823 109.671 154.5 108.75C154.144 107.737 154.326 107.06 154.5 106C154.818 104.061 155.964 103.301 156.75 101.5C158.109 98.3876 158.764 96.5655 159.5 93.25C160.287 89.7029 160.643 87.6306 160.5 84C160.395 81.3373 160.128 79.8399 159.5 77.25C158.918 74.8496 157.754 73.7068 157.5 71.25C157.379 70.0846 156.998 69.3088 157.5 68.25C158.103 66.9775 159.155 66.666 160.5 66.25C161.899 65.8173 162.84 65.8535 164.25 66.25C166.13 66.7787 167.024 67.73 168.25 69.25C169.878 71.2693 170.147 72.9769 170.75 75.5C171.569 78.9304 172.25 81.2231 172.25 84.75C172.25 87.5 172.412 90.3083 171.5 93.5C170.5 97 169.57 98.9228 167.75 102.5C166.313 105.324 164.75 107.5 163.25 109.25L163.203 109.305C162.49 110.137 162.056 110.644 161 111Z" fill="#854DA3"/>
<ellipse cx="93" cy="78" rx="13.5" ry="14.5" fill="white"/>
<ellipse cx="93" cy="78" rx="13.5" ry="14.5" fill="white"/>
<ellipse cx="93" cy="79.25" rx="10" ry="10.75" fill="#662E76"/>
<ellipse cx="135.25" cy="78.5" rx="14.25" ry="14.5" fill="white"/>
<ellipse cx="136.25" cy="79" rx="9.75" ry="10" fill="#642974"/>
<path d="M83.7021 88.5137C86.052 90.9118 89.2055 92.4092 92.6836 92.4951C93.8279 93.9878 94.5 95.7976 94.5 97.75C94.5 102.859 89.9109 107 84.25 107C78.5891 107 74 102.859 74 97.75C74 92.8072 78.296 88.7706 83.7021 88.5137Z" fill="#F4585B"/>
<path d="M145.065 89.0117C150.878 89.2525 155.5 93.1846 155.5 98C155.5 102.971 150.575 107 144.5 107C138.425 107 133.5 102.971 133.5 98C133.5 96.1489 134.183 94.4286 135.354 92.998C139.117 92.9705 142.533 91.4606 145.065 89.0117Z" fill="#F4585B"/>
<path d="M125.6 90.1875C124.85 89.9375 106.35 89.9375 105.35 90.1875C104.35 90.4375 102.096 91.3833 101.35 93.1875C100.79 94.5407 100.987 95.5187 101.35 96.9375C101.887 99.0378 103.065 99.9063 104.6 101.438C106.864 103.697 108.486 104.959 111.6 105.688C113.881 106.221 115.32 106.227 117.6 105.688C120.322 105.044 121.788 104.078 123.85 102.188C125.707 100.485 127.037 99.3933 127.6 96.9375C127.927 95.5101 128.033 94.5866 127.6 93.1875C127.184 91.8423 126.35 90.4375 125.6 90.1875Z" fill="#541F4A"/>
<path d="M114.5 97.5009C118.29 97.5775 123.087 101.483 123.885 102.154C123.873 102.165 123.862 102.177 123.85 102.187C121.788 104.078 120.322 105.044 117.6 105.687C115.319 106.227 113.881 106.221 111.6 105.687C108.677 105.004 107.068 103.849 105.01 101.842C106.496 100.675 110.954 97.4293 114.5 97.5009Z" fill="#EC3F30"/>
<path d="M96 62.7502H91C89 62.7502 88.75 60.2502 89 59.7501C89.25 59.25 89.5073 58.2501 90.75 58.2501C92.75 58.2501 94.25 57.9999 95.25 58.2501C96.7476 58.6246 97.7986 59.4572 97.75 61.0001C97.7237 61.8339 96.8342 62.7502 96 62.7502Z" fill="#854DA3"/>
<path d="M128.5 61C127.601 61.4495 126.771 60.8598 126.25 60C125.45 58.6796 126.557 57.972 127.5 56.75C128.544 55.3981 128.882 55.2977 130.5 54.75C132.083 54.2141 133.5 53.75 134.75 53.75C135.938 53.75 136.58 53.9992 137.5 54.75C138.529 55.5894 138.362 56.25 138.25 57C138.026 58.5 133.854 57.1031 131.25 58.5C129.664 59.3511 129.5 60.5 128.5 61Z" fill="#854DA3"/>
<path d="M124.5 128C128.757 126.55 132 123.25 134.75 122.75C136.876 122.363 138.054 122.894 139.5 124.5C141.459 126.677 140.974 130.094 138.75 132C137 133.5 134.042 135.424 129.5 136.75C123.429 138.522 119.072 138.836 112.75 139C105.172 139.196 101.384 138.425 94.5 135.25C88.6428 132.548 85.6982 130.888 80.75 126.75C76.9237 123.55 75.1387 121.876 72 118C69.903 115.41 63.7695 108.01 66.75 109.5C70.25 111.25 72.5 112 76.25 112C79.2369 112 81.2831 111.816 83.75 113.5C86.5303 115.398 85.8672 118.395 88 121C89.839 123.246 91.0794 124.398 93.5 126C98.5553 129.346 102.453 129.565 108.5 130C114.781 130.452 118.539 130.03 124.5 128Z" fill="#854DA3"/>
<path d="M84.7512 122.319C83.008 121.783 82.0414 120.72 80.2512 121.069C79.1799 121.278 78.6304 121.672 77.7512 122.319C76.9728 122.892 76.4611 123.219 76.0012 124.069C75.5282 124.943 75.5178 125.571 75.5013 126.564L75.5012 126.569C75.476 128.084 75.843 128.954 76.5012 130.319C77.2561 131.885 78.2297 132.884 79.5012 134.069C80.9473 135.417 81.7159 135.97 83.5012 136.819C85.1741 137.615 86.1598 137.867 88.0012 138.069C89.8553 138.272 91.172 138.434 93.0012 138.069C95.2117 137.628 96.3802 137.076 98.2512 135.819C99.9742 134.662 100.958 133.864 102.001 132.069C102.794 130.705 103.017 129.629 103.251 128.069L103.256 128.037C103.516 126.305 103.706 125.045 102.751 123.569C102.072 122.519 101.396 122.071 100.251 121.569C99.1635 121.092 98.438 121.021 97.2512 121.069C95.3672 121.146 94.5698 122.321 92.7512 122.819C91.1257 123.264 90.1806 123.712 88.5012 123.569C86.9631 123.438 86.2267 122.773 84.7512 122.319Z" fill="#F76087"/>
<ellipse cx="99.35" cy="125.62" rx="1.75" ry="2.5" transform="rotate(-34 99.35 125.62)" fill="#D9D9D9"/>
<ellipse cx="79.7512" cy="125.597" rx="1.59842" ry="2.24782" transform="rotate(59 79.7512 125.597)" fill="#D9D9D9"/>
<ellipse cx="90.0012" cy="130.819" rx="4.5" ry="4.25" fill="white"/>
<path d="M87.0007 130.068C89.1747 129.507 90.5821 129.486 92.7507 130.068C93.5562 130.285 94.0522 130.363 94.7507 130.818C95.6198 131.385 96.043 131.887 96.5007 132.818C96.8141 133.456 96.8781 133.868 97.0007 134.568C97.2028 135.722 97.2065 136.415 97.0007 137.568C96.7999 138.693 96.6551 139.382 96.0007 140.318C95.2846 141.343 94.5007 141.985 93.5007 142.318C92.5006 142.652 90.2507 142.818 90.2507 142.818C90.2127 142.814 86.2483 142.317 85.7507 142.068C85.2505 141.818 84.1958 141.019 83.5007 139.818C82.8194 138.642 82.3629 137.924 82.2507 136.568C82.1527 135.385 82.3429 134.684 82.7507 133.568C83.0958 132.624 83.2788 132.018 84.0007 131.318C84.9122 130.435 85.7719 130.386 87.0007 130.068ZM92.5007 131.068C90.5076 130.268 87.0007 131.068 87.0007 131.068C86.9743 131.077 85.2013 131.682 84.5007 132.568C84.0947 133.082 83.9502 133.445 83.7507 134.068C83.5108 134.818 83.4084 135.287 83.5007 136.068C83.6443 137.283 84.1453 137.944 85.0007 138.818C85.7969 139.632 86.4186 139.965 87.5007 140.318C88.6181 140.683 89.333 140.702 90.5007 140.568C91.7275 140.428 92.4743 140.255 93.5007 139.568C94.4779 138.915 95.0489 138.404 95.5007 137.318C95.915 136.323 95.9818 135.622 95.7507 134.568C95.5066 133.457 95.1012 132.825 94.2507 132.068C93.6628 131.546 93.2308 131.362 92.5007 131.068Z" fill="#D9D9D9"/>
<rect x="87.0012" y="129.069" width="5.5" height="3" rx="1" fill="#854DA3"/>
<path d="M111.5 41.75C111.5 41.75 112.222 37.979 111.5 35.75C110.583 32.9192 106.5 30 106.5 30M116 41.75V30M120.75 41.75L122.75 35.75M122.75 35.75L119.25 29M122.75 35.75L127.5 29" stroke="black" stroke-width="2.5" stroke-linecap="round"/>
<path d="M139.069 135.04L141.596 113.02C141.793 111.304 143.63 110.3 145.181 111.06L164.313 120.446C166.104 121.325 166.195 123.845 164.472 124.85L142.813 137.484C141.034 138.522 138.834 137.085 139.069 135.04Z" fill="#FFCE01"/>
<circle cx="149.5" cy="120" r="1" fill="black"/>
<circle cx="147.5" cy="123" r="1" fill="black"/>
<circle cx="150.5" cy="123.5" r="1" fill="black"/>
<path d="M36.904 172.692C36.184 172.692 35.672 172.588 35.368 172.38C35.064 172.156 34.88 171.876 34.816 171.54C34.752 171.188 34.72 170.828 34.72 170.46V158.076C34.72 157.724 34.752 157.38 34.816 157.044C34.88 156.708 35.064 156.436 35.368 156.228C35.672 156.004 36.192 155.892 36.928 155.892H42.544C43.52 155.892 44.392 156.132 45.16 156.612C45.928 157.076 46.536 157.7 46.984 158.484C47.432 159.268 47.656 160.116 47.656 161.028C47.656 161.332 47.624 161.644 47.56 161.964C47.512 162.268 47.424 162.572 47.296 162.876C47.184 163.164 47.04 163.444 46.864 163.716C47.136 164.052 47.368 164.42 47.56 164.82C47.752 165.204 47.896 165.604 47.992 166.02C48.088 166.42 48.136 166.828 48.136 167.244C48.12 168.012 47.968 168.732 47.68 169.404C47.408 170.06 47.024 170.636 46.528 171.132C46.032 171.612 45.464 171.996 44.824 172.284C44.184 172.556 43.504 172.692 42.784 172.692H36.904ZM39.112 168.3H42.544C42.656 168.3 42.808 168.284 43 168.252C43.192 168.204 43.36 168.092 43.504 167.916C43.664 167.724 43.744 167.412 43.744 166.98C43.744 166.756 43.72 166.572 43.672 166.428C43.64 166.268 43.584 166.148 43.504 166.068C43.424 165.972 43.328 165.908 43.216 165.876C43.12 165.828 43 165.796 42.856 165.78C42.728 165.764 42.584 165.756 42.424 165.756H42.112C41.472 165.756 41.016 165.62 40.744 165.348C40.472 165.076 40.336 164.596 40.336 163.908C40.336 163.252 40.48 162.796 40.768 162.54C41.072 162.268 41.56 162.132 42.232 162.132H42.52C42.648 162.132 42.76 162.124 42.856 162.108C42.952 162.092 43.024 162.052 43.072 161.988C43.136 161.924 43.184 161.836 43.216 161.724C43.248 161.596 43.264 161.428 43.264 161.22C43.264 160.852 43.176 160.604 43 160.476C42.84 160.348 42.512 160.284 42.016 160.284H39.112V168.3ZM55.345 172.932C54.609 172.932 53.865 172.788 53.113 172.5C52.361 172.196 51.665 171.772 51.025 171.228C50.401 170.668 49.897 170.004 49.513 169.236C49.145 168.452 48.961 167.58 48.961 166.62C48.961 165.74 49.129 164.916 49.465 164.148C49.801 163.38 50.257 162.708 50.833 162.132C51.425 161.54 52.097 161.076 52.849 160.74C53.617 160.404 54.433 160.236 55.297 160.236C56.481 160.236 57.553 160.524 58.513 161.1C59.473 161.66 60.241 162.42 60.817 163.38C61.393 164.34 61.681 165.412 61.681 166.596C61.681 167.604 61.489 168.5 61.105 169.284C60.721 170.068 60.217 170.732 59.593 171.276C58.969 171.82 58.281 172.228 57.529 172.5C56.793 172.788 56.065 172.932 55.345 172.932ZM55.297 168.54C55.537 168.54 55.809 168.484 56.113 168.372C56.433 168.244 56.705 168.036 56.929 167.748C57.169 167.46 57.289 167.068 57.289 166.572C57.289 166.172 57.201 165.828 57.025 165.54C56.865 165.252 56.633 165.028 56.329 164.868C56.025 164.708 55.673 164.628 55.273 164.628C54.921 164.628 54.601 164.716 54.313 164.892C54.025 165.052 53.793 165.284 53.617 165.588C53.441 165.876 53.353 166.212 53.353 166.596C53.353 167.076 53.465 167.46 53.689 167.748C53.913 168.036 54.177 168.244 54.481 168.372C54.785 168.484 55.057 168.54 55.297 168.54ZM68.8958 172.836C68.2398 172.836 67.5438 172.708 66.8078 172.452C66.0878 172.18 65.4078 171.788 64.7678 171.276C64.1278 170.748 63.6078 170.092 63.2078 169.308C62.8078 168.524 62.6078 167.612 62.6078 166.572C62.6078 165.548 62.8078 164.652 63.2078 163.884C63.6078 163.1 64.1198 162.452 64.7438 161.94C65.3838 161.428 66.0638 161.044 66.7838 160.788C67.5198 160.516 68.2078 160.38 68.8478 160.38C69.4558 160.38 69.9838 160.444 70.4318 160.572C70.8798 160.7 71.2478 160.844 71.5358 161.004C71.8238 161.148 72.0318 161.26 72.1598 161.34C72.4798 161.532 72.7758 161.756 73.0478 162.012C73.3358 162.252 73.4798 162.58 73.4798 162.996C73.4798 163.204 73.4398 163.42 73.3598 163.644C73.2798 163.852 73.1518 164.092 72.9758 164.364C72.3998 165.244 71.8238 165.684 71.2478 165.684C70.9918 165.684 70.7678 165.644 70.5758 165.564C70.3838 165.468 70.2078 165.364 70.0478 165.252C69.8878 165.14 69.7118 165.044 69.5198 164.964C69.3438 164.868 69.1198 164.82 68.8478 164.82C68.5278 164.82 68.2318 164.9 67.9598 165.06C67.6878 165.22 67.4718 165.436 67.3118 165.708C67.1518 165.964 67.0718 166.26 67.0718 166.596C67.0718 166.932 67.1518 167.236 67.3118 167.508C67.4718 167.78 67.6798 167.996 67.9358 168.156C68.2078 168.316 68.4958 168.396 68.7998 168.396C69.0238 168.396 69.2078 168.372 69.3518 168.324C69.5118 168.276 69.6318 168.228 69.7118 168.18C69.7918 168.116 69.8398 168.084 69.8558 168.084C70.0798 167.956 70.2878 167.836 70.4798 167.724C70.6878 167.612 70.8958 167.556 71.1038 167.556C71.3758 167.556 71.6558 167.66 71.9438 167.868C72.2318 168.06 72.5518 168.38 72.9038 168.828C73.2398 169.244 73.4238 169.636 73.4558 170.004C73.5038 170.356 73.4158 170.692 73.1918 171.012C72.9678 171.316 72.6238 171.612 72.1598 171.9C72.1118 171.932 71.9438 172.028 71.6558 172.188C71.3838 172.332 71.0158 172.476 70.5518 172.62C70.0878 172.764 69.5358 172.836 68.8958 172.836ZM84.5421 172.668C83.8221 172.668 83.2861 172.548 82.9341 172.308C82.5981 172.068 82.4381 171.796 82.4541 171.492H82.7901C82.7101 171.604 82.5501 171.756 82.3101 171.948C82.0861 172.124 81.7821 172.292 81.3981 172.452C81.0141 172.596 80.5421 172.668 79.9821 172.668C79.2621 172.668 78.5661 172.508 77.8941 172.188C77.2381 171.852 76.6461 171.396 76.1181 170.82C75.6061 170.244 75.1981 169.596 74.8941 168.876C74.5901 168.14 74.4381 167.372 74.4381 166.572C74.4381 165.788 74.5901 165.036 74.8941 164.316C75.1981 163.596 75.6141 162.956 76.1421 162.396C76.6701 161.82 77.2621 161.372 77.9181 161.052C78.5741 160.716 79.2621 160.548 79.9821 160.548C80.5261 160.548 80.9821 160.628 81.3501 160.788C81.7341 160.948 82.0381 161.124 82.2621 161.316C82.5021 161.508 82.6621 161.668 82.7421 161.796H82.4781C82.4621 161.396 82.6221 161.084 82.9581 160.86C83.3101 160.636 83.8461 160.524 84.5661 160.524C85.2861 160.524 85.7901 160.636 86.0781 160.86C86.3821 161.068 86.5661 161.34 86.6301 161.676C86.6941 162.012 86.7261 162.356 86.7261 162.708V170.508C86.7261 170.86 86.6941 171.204 86.6301 171.54C86.5661 171.876 86.3821 172.148 86.0781 172.356C85.7901 172.564 85.2781 172.668 84.5421 172.668ZM80.5821 168.324C80.8861 168.324 81.1581 168.244 81.3981 168.084C81.6541 167.924 81.8541 167.716 81.9981 167.46C82.1581 167.188 82.2381 166.9 82.2381 166.596C82.2381 166.276 82.1581 165.988 81.9981 165.732C81.8541 165.476 81.6541 165.268 81.3981 165.108C81.1421 164.948 80.8541 164.868 80.5341 164.868C80.2141 164.868 79.9181 164.948 79.6461 165.108C79.3901 165.268 79.1821 165.484 79.0221 165.756C78.8621 166.012 78.7821 166.3 78.7821 166.62C78.7821 166.924 78.8621 167.204 79.0221 167.46C79.1981 167.716 79.4221 167.924 79.6941 168.084C79.9661 168.244 80.2621 168.324 80.5821 168.324ZM90.2695 172.716C89.5495 172.716 89.0375 172.612 88.7335 172.404C88.4295 172.18 88.2455 171.9 88.1815 171.564C88.1335 171.228 88.1095 170.884 88.1095 170.532V157.188C88.1095 156.82 88.1415 156.476 88.2055 156.156C88.2695 155.82 88.4535 155.548 88.7575 155.34C89.0615 155.132 89.5735 155.028 90.2935 155.028C91.0135 155.028 91.5175 155.14 91.8055 155.364C92.1095 155.572 92.2935 155.844 92.3575 156.18C92.4215 156.5 92.4535 156.844 92.4535 157.212V161.58C92.6935 161.356 93.0135 161.132 93.4135 160.908C93.8295 160.668 94.3095 160.548 94.8535 160.548C95.8775 160.548 96.7975 160.82 97.6135 161.364C98.4295 161.892 99.0775 162.612 99.5575 163.524C100.038 164.436 100.278 165.468 100.278 166.62V170.556C100.278 170.908 100.246 171.252 100.182 171.588C100.118 171.908 99.9335 172.18 99.6295 172.404C99.3415 172.612 98.8295 172.716 98.0935 172.716C97.3895 172.716 96.8775 172.612 96.5575 172.404C96.2535 172.196 96.0695 171.924 96.0055 171.588C95.9415 171.252 95.9095 170.892 95.9095 170.508V166.596C95.9095 166.244 95.8455 165.948 95.7175 165.708C95.5895 165.452 95.4055 165.252 95.1655 165.108C94.9255 164.964 94.6375 164.892 94.3015 164.892C93.8695 164.892 93.4695 165.028 93.1015 165.3C92.7335 165.572 92.5175 165.884 92.4535 166.236V170.556C92.4535 170.908 92.4215 171.252 92.3575 171.588C92.2935 171.924 92.1095 172.196 91.8055 172.404C91.5175 172.612 91.0055 172.716 90.2695 172.716Z" fill="#875D99"/>
<path d="M113.113 172.956C112.137 172.956 111.305 172.836 110.617 172.596C109.945 172.356 109.393 172.076 108.961 171.756C108.529 171.42 108.201 171.116 107.977 170.844C107.753 170.572 107.617 170.404 107.569 170.34C107.249 169.94 107.049 169.58 106.969 169.26C106.905 168.94 106.953 168.62 107.113 168.3C107.289 167.98 107.577 167.628 107.977 167.244C108.345 166.892 108.705 166.7 109.057 166.668C109.409 166.62 109.753 166.692 110.089 166.884C110.441 167.076 110.777 167.356 111.097 167.724C111.481 168.156 111.809 168.452 112.081 168.612C112.353 168.756 112.665 168.828 113.017 168.828C113.449 168.828 113.801 168.78 114.073 168.684C114.345 168.572 114.545 168.412 114.673 168.204C114.801 167.98 114.865 167.7 114.865 167.364C114.865 167.092 114.729 166.884 114.457 166.74C114.185 166.58 113.825 166.444 113.377 166.332C112.945 166.22 112.457 166.1 111.913 165.972C111.369 165.828 110.833 165.644 110.305 165.42C109.985 165.292 109.673 165.132 109.369 164.94C109.065 164.748 108.777 164.532 108.505 164.292C108.249 164.036 108.025 163.74 107.833 163.404C107.641 163.052 107.489 162.66 107.377 162.228C107.281 161.796 107.233 161.308 107.233 160.764C107.233 159.788 107.473 158.916 107.953 158.148C108.449 157.38 109.121 156.772 109.969 156.324C110.833 155.876 111.809 155.652 112.897 155.652C113.681 155.652 114.353 155.716 114.913 155.844C115.473 155.972 115.929 156.124 116.281 156.3C116.649 156.476 116.929 156.644 117.121 156.804C117.313 156.948 117.433 157.044 117.481 157.092C118.009 157.572 118.297 157.988 118.345 158.34C118.393 158.676 118.201 159.164 117.769 159.804C117.289 160.492 116.817 160.884 116.353 160.98C115.889 161.06 115.353 160.908 114.745 160.524C114.617 160.428 114.489 160.324 114.361 160.212C114.233 160.084 114.057 159.98 113.833 159.9C113.625 159.804 113.305 159.756 112.873 159.756C112.713 159.756 112.553 159.788 112.393 159.852C112.233 159.9 112.097 159.972 111.985 160.068C111.873 160.148 111.777 160.252 111.697 160.38C111.633 160.508 111.601 160.644 111.601 160.788C111.601 161.124 111.729 161.388 111.985 161.58C112.241 161.756 112.577 161.892 112.993 161.988C113.425 162.084 113.897 162.18 114.409 162.276C114.921 162.372 115.441 162.5 115.969 162.66C116.401 162.804 116.817 162.988 117.217 163.212C117.617 163.436 117.969 163.724 118.273 164.076C118.577 164.428 118.817 164.868 118.993 165.396C119.185 165.908 119.281 166.54 119.281 167.292C119.281 168.332 119.081 169.22 118.681 169.956C118.281 170.676 117.761 171.26 117.121 171.708C116.497 172.14 115.825 172.452 115.105 172.644C114.401 172.852 113.737 172.956 113.113 172.956ZM126.529 172.98C125.329 172.98 124.313 172.788 123.481 172.404C122.649 172.004 121.977 171.492 121.465 170.868C120.953 170.228 120.577 169.54 120.337 168.804C120.097 168.068 119.977 167.356 119.977 166.668C119.977 165.404 120.257 164.292 120.817 163.332C121.377 162.372 122.153 161.62 123.145 161.076C124.137 160.532 125.273 160.26 126.553 160.26C127.545 160.26 128.393 160.42 129.097 160.74C129.801 161.06 130.369 161.468 130.801 161.964C131.249 162.46 131.577 162.988 131.785 163.548C131.993 164.108 132.097 164.628 132.097 165.108C132.097 166.02 131.873 166.716 131.425 167.196C130.977 167.676 130.401 167.916 129.697 167.916H124.585C124.649 168.172 124.777 168.396 124.969 168.588C125.177 168.764 125.433 168.908 125.737 169.02C126.041 169.116 126.369 169.164 126.721 169.164C127.073 169.164 127.385 169.148 127.657 169.116C127.929 169.068 128.161 169.012 128.353 168.948C128.561 168.884 128.745 168.82 128.905 168.756C129.081 168.692 129.233 168.644 129.361 168.612C129.505 168.564 129.641 168.54 129.769 168.54C130.057 168.54 130.321 168.636 130.561 168.828C130.801 169.02 131.017 169.308 131.209 169.692C131.321 169.9 131.401 170.1 131.449 170.292C131.497 170.468 131.521 170.636 131.521 170.796C131.521 171.276 131.321 171.676 130.921 171.996C130.537 172.316 129.977 172.556 129.241 172.716C128.505 172.892 127.601 172.98 126.529 172.98ZM124.585 165.66H127.273C127.497 165.66 127.657 165.612 127.753 165.516C127.865 165.42 127.921 165.276 127.921 165.084C127.921 164.876 127.857 164.7 127.729 164.556C127.617 164.412 127.457 164.308 127.249 164.244C127.041 164.164 126.793 164.124 126.505 164.124C126.121 164.124 125.785 164.204 125.497 164.364C125.209 164.508 124.985 164.7 124.825 164.94C124.681 165.164 124.601 165.404 124.585 165.66ZM135.293 172.716C134.573 172.716 134.061 172.612 133.757 172.404C133.453 172.18 133.269 171.9 133.205 171.564C133.157 171.228 133.133 170.884 133.133 170.532V157.188C133.133 156.82 133.165 156.476 133.229 156.156C133.293 155.82 133.477 155.548 133.781 155.34C134.085 155.132 134.597 155.028 135.317 155.028C136.037 155.028 136.541 155.14 136.829 155.364C137.133 155.572 137.317 155.844 137.381 156.18C137.445 156.5 137.477 156.844 137.477 157.212V161.58C137.717 161.356 138.037 161.132 138.437 160.908C138.853 160.668 139.333 160.548 139.877 160.548C140.901 160.548 141.821 160.82 142.637 161.364C143.453 161.892 144.101 162.612 144.581 163.524C145.061 164.436 145.301 165.468 145.301 166.62V170.556C145.301 170.908 145.269 171.252 145.205 171.588C145.141 171.908 144.957 172.18 144.653 172.404C144.365 172.612 143.853 172.716 143.117 172.716C142.413 172.716 141.901 172.612 141.581 172.404C141.277 172.196 141.093 171.924 141.029 171.588C140.965 171.252 140.933 170.892 140.933 170.508V166.596C140.933 166.244 140.869 165.948 140.741 165.708C140.613 165.452 140.429 165.252 140.189 165.108C139.949 164.964 139.661 164.892 139.325 164.892C138.893 164.892 138.493 165.028 138.125 165.3C137.757 165.572 137.541 165.884 137.477 166.236V170.556C137.477 170.908 137.445 171.252 137.381 171.588C137.317 171.924 137.133 172.196 136.829 172.404C136.541 172.612 136.029 172.716 135.293 172.716ZM156.448 172.668C155.728 172.668 155.192 172.548 154.84 172.308C154.504 172.068 154.344 171.796 154.36 171.492H154.696C154.616 171.604 154.456 171.756 154.216 171.948C153.992 172.124 153.688 172.292 153.304 172.452C152.92 172.596 152.448 172.668 151.888 172.668C151.168 172.668 150.472 172.508 149.8 172.188C149.144 171.852 148.552 171.396 148.024 170.82C147.512 170.244 147.104 169.596 146.8 168.876C146.496 168.14 146.344 167.372 146.344 166.572C146.344 165.788 146.496 165.036 146.8 164.316C147.104 163.596 147.52 162.956 148.048 162.396C148.576 161.82 149.168 161.372 149.824 161.052C150.48 160.716 151.168 160.548 151.888 160.548C152.432 160.548 152.888 160.628 153.256 160.788C153.64 160.948 153.944 161.124 154.168 161.316C154.408 161.508 154.568 161.668 154.648 161.796H154.384C154.368 161.396 154.528 161.084 154.864 160.86C155.216 160.636 155.752 160.524 156.472 160.524C157.192 160.524 157.696 160.636 157.984 160.86C158.288 161.068 158.472 161.34 158.536 161.676C158.6 162.012 158.632 162.356 158.632 162.708V170.508C158.632 170.86 158.6 171.204 158.536 171.54C158.472 171.876 158.288 172.148 157.984 172.356C157.696 172.564 157.184 172.668 156.448 172.668ZM152.488 168.324C152.792 168.324 153.064 168.244 153.304 168.084C153.56 167.924 153.76 167.716 153.904 167.46C154.064 167.188 154.144 166.9 154.144 166.596C154.144 166.276 154.064 165.988 153.904 165.732C153.76 165.476 153.56 165.268 153.304 165.108C153.048 164.948 152.76 164.868 152.44 164.868C152.12 164.868 151.824 164.948 151.552 165.108C151.296 165.268 151.088 165.484 150.928 165.756C150.768 166.012 150.688 166.3 150.688 166.62C150.688 166.924 150.768 167.204 150.928 167.46C151.104 167.716 151.328 167.924 151.6 168.084C151.872 168.244 152.168 168.324 152.488 168.324ZM166.592 172.716C165.744 172.716 165.008 172.62 164.384 172.428C163.76 172.236 163.24 171.94 162.824 171.54C162.424 171.14 162.12 170.636 161.912 170.028C161.72 169.42 161.624 168.708 161.624 167.892V158.58C161.624 158.212 161.656 157.876 161.72 157.572C161.784 157.252 161.968 156.996 162.272 156.804C162.576 156.596 163.088 156.492 163.808 156.492C164.512 156.492 165.016 156.604 165.32 156.828C165.624 157.036 165.808 157.308 165.872 157.644C165.936 157.98 165.968 158.324 165.968 158.676V167.676C165.968 167.852 165.976 168.004 165.992 168.132C166.024 168.244 166.064 168.332 166.112 168.396C166.16 168.46 166.224 168.508 166.304 168.54C166.384 168.572 166.488 168.588 166.616 168.588C167.032 168.588 167.4 168.62 167.72 168.684C168.056 168.748 168.312 168.916 168.488 169.188C168.68 169.46 168.776 169.916 168.776 170.556C168.776 171.276 168.664 171.788 168.44 172.092C168.216 172.396 167.936 172.572 167.6 172.62C167.264 172.684 166.928 172.716 166.592 172.716ZM161.12 160.668H163.928L167.24 160.548C167.592 160.548 167.928 160.58 168.248 160.644C168.584 160.708 168.856 160.892 169.064 161.196C169.288 161.5 169.4 162.02 169.4 162.756C169.4 163.428 169.288 163.916 169.064 164.22C168.856 164.524 168.584 164.716 168.248 164.796C167.928 164.876 167.584 164.916 167.216 164.916L164.168 164.844H161.024C160.48 164.812 160.104 164.636 159.896 164.316C159.688 163.996 159.584 163.468 159.584 162.732C159.584 162.044 159.712 161.532 159.968 161.196C160.224 160.844 160.608 160.668 161.12 160.668ZM180.745 168.756C181.337 169.284 181.649 169.788 181.681 170.268C181.729 170.732 181.465 171.268 180.889 171.876C180.457 172.324 180.081 172.612 179.761 172.74C179.457 172.884 179.153 172.884 178.849 172.74C178.545 172.612 178.185 172.364 177.769 171.996L174.817 169.236V170.556C174.817 170.908 174.785 171.252 174.721 171.588C174.657 171.924 174.473 172.196 174.169 172.404C173.881 172.612 173.369 172.716 172.633 172.716C171.913 172.716 171.401 172.612 171.097 172.404C170.793 172.18 170.609 171.9 170.545 171.564C170.497 171.228 170.473 170.884 170.473 170.532V157.164C170.473 156.796 170.505 156.452 170.569 156.132C170.633 155.796 170.817 155.524 171.121 155.316C171.425 155.092 171.937 154.98 172.657 154.98C173.377 154.98 173.881 155.092 174.169 155.316C174.473 155.524 174.657 155.796 174.721 156.132C174.785 156.468 174.817 156.82 174.817 157.188V163.812L176.857 161.82C177.241 161.452 177.601 161.204 177.937 161.076C178.273 160.932 178.601 160.924 178.921 161.052C179.257 161.164 179.609 161.42 179.977 161.82C180.601 162.492 180.897 163.036 180.865 163.452C180.849 163.868 180.553 164.364 179.977 164.94L178.033 166.644L180.745 168.756ZM187.355 172.668C186.588 172.668 185.868 172.516 185.196 172.212C184.54 171.908 183.964 171.484 183.468 170.94C182.972 170.38 182.588 169.732 182.316 168.996C182.044 168.26 181.908 167.46 181.908 166.596V162.684C181.908 162.316 181.94 161.972 182.004 161.652C182.068 161.316 182.252 161.044 182.556 160.836C182.86 160.612 183.372 160.5 184.092 160.5C184.828 160.5 185.34 160.612 185.628 160.836C185.932 161.044 186.116 161.316 186.18 161.652C186.244 161.988 186.276 162.34 186.276 162.708V166.596C186.276 166.964 186.34 167.276 186.468 167.532C186.612 167.788 186.812 167.988 187.068 168.132C187.34 168.26 187.652 168.324 188.004 168.324C188.356 168.324 188.66 168.252 188.916 168.108C189.172 167.964 189.372 167.764 189.516 167.508C189.66 167.252 189.732 166.948 189.732 166.596V162.66C189.732 162.292 189.764 161.948 189.828 161.628C189.892 161.292 190.076 161.02 190.38 160.812C190.684 160.604 191.196 160.5 191.916 160.5C192.652 160.5 193.164 160.612 193.452 160.836C193.756 161.044 193.94 161.316 194.004 161.652C194.068 161.988 194.1 162.332 194.1 162.684V170.58C194.1 170.932 194.068 171.268 194.004 171.588C193.94 171.908 193.756 172.172 193.452 172.38C193.148 172.588 192.636 172.692 191.916 172.692C191.388 172.692 190.972 172.628 190.668 172.5C190.38 172.388 190.172 172.244 190.044 172.068C189.916 171.876 189.836 171.692 189.804 171.516C189.788 171.324 189.78 171.164 189.78 171.036L190.188 171.156C190.188 171.156 190.124 171.236 189.996 171.396C189.868 171.54 189.676 171.716 189.42 171.924C189.18 172.116 188.884 172.292 188.532 172.452C188.196 172.596 187.804 172.668 187.355 172.668Z" fill="#F25F88"/>
</svg>
