<svg width="59" height="60" viewBox="0 0 59 60" fill="none" xmlns="http://www.w3.org/2000/svg">
<path d="M35.4734 51.8435C34.0731 53.823 33.338 56.2836 35.9986 58.0999L36.0192 58.0986C35.6833 53.6735 50.5045 52.4771 48.4665 45.4562L48.3962 45.2718C47.1794 42.6117 44.1856 42.0802 42.4818 43.5714C41.0248 44.8475 41.1384 47.1865 41.8082 48.8145C40.0731 48.5254 36.592 50.2624 35.4734 51.8435Z" fill="#854DA3"/>
<path d="M38.2593 39.018C35.5559 39.2234 33.1977 37.1964 32.9928 34.4906C32.7872 31.785 34.8126 29.4246 37.516 29.2192C40.2201 29.0142 42.5778 31.0409 42.783 33.747C42.9881 36.4531 40.9629 38.8126 38.2593 39.018ZM24.5388 28.2635C21.9063 28.914 19.2453 27.3062 18.5955 24.6713C17.9453 22.0367 19.5525 19.3737 22.1844 18.723C24.8167 18.0724 27.4778 19.6803 28.1279 22.3151C28.7778 24.9497 27.1708 27.6129 24.5388 28.2635ZM58.2687 26.9682C58.2642 26.9634 58.2592 26.9588 58.2544 26.9543L30.3267 0.396248C30.067 0.141235 29.7242 0 29.3594 0C28.9953 0 28.6527 0.141235 28.3931 0.396248L0.418783 26.954C0.413823 26.9588 0.408965 26.9634 0.404106 26.9682C0.143442 27.2288 0 27.5755 0 27.9442C0 28.3132 0.143441 28.6598 0.404004 28.9204C0.55109 29.0675 0.750814 29.1502 0.959042 29.1502H4.3252L4.59893 35.2615C4.61948 48.7833 15.4602 59.7642 28.9192 59.9995C25.3467 58.5326 17.1756 54.7636 12.2061 49.2114C10.0398 46.7906 8.48197 44.0311 8.17939 40.9757C7.81284 37.2741 9.33846 33.8219 11.969 31.5799C16.8233 27.4422 24.2973 28.3214 28.0105 33.6941L28.0283 33.8752C26.7879 34.3519 25.6061 35.0422 24.5386 35.9523C21.619 38.4411 19.9258 42.2725 20.3324 46.3799C20.6686 49.7714 22.3973 52.8342 24.802 55.5207C26.2665 57.157 27.9827 58.6534 29.7867 60C31.1184 59.9775 32.4245 59.8495 33.6973 59.625C31.2996 58.0103 26.8437 54.661 24.4168 50.6377C23.2738 48.7424 22.581 46.6974 22.7661 44.6139C22.9901 42.0904 24.4488 39.9743 26.4934 38.8071C30.2669 36.6549 35.1573 38.1932 36.9613 42.2603C40.3637 37.2287 48.0388 38.1872 50.1058 43.8908C50.1287 43.9183 50.6735 45.3435 50.519 47.0823C50.4751 47.5782 50.381 48.0629 50.246 48.5361C52.4389 45.0974 53.8084 41.0805 54.073 36.7649C54.073 36.7626 54.0736 36.7602 54.0737 36.7579C54.0747 36.7426 54.0755 36.7259 54.0764 36.7097C54.1014 36.2899 54.1157 35.8671 54.1192 35.4417C54.1588 33.6255 54.1527 31.0164 54.141 29.1502H57.7139C57.9221 29.1502 58.1219 29.0675 58.2687 28.92C58.8064 28.3821 58.8064 27.5065 58.2687 26.9682Z" fill="#854DA3"/>
</svg>
